<svg xmlns="http://www.w3.org/2000/svg" width="1200" height="630" viewBox="0 0 1200 630" role="img" aria-label="Mercure Global International Logistics Solutions">
  <defs>
    <radialGradient id="cyanGlow" cx="18%" cy="18%" r="64%">
      <stop offset="0" stop-color="#10d7ff" stop-opacity="0.42"/>
      <stop offset="0.48" stop-color="#0b4fd8" stop-opacity="0.2"/>
      <stop offset="1" stop-color="#031225" stop-opacity="0"/>
    </radialGradient>
    <radialGradient id="goldGlow" cx="80%" cy="24%" r="52%">
      <stop offset="0" stop-color="#d99a22" stop-opacity="0.38"/>
      <stop offset="1" stop-color="#031225" stop-opacity="0"/>
    </radialGradient>
    <linearGradient id="panel" x1="0" x2="1" y1="0" y2="1">
      <stop offset="0" stop-color="#031225"/>
      <stop offset="0.55" stop-color="#04162f"/>
      <stop offset="1" stop-color="#06265b"/>
    </linearGradient>
  </defs>
  <rect width="1200" height="630" fill="#e9edf3"/>
  <rect x="64" y="56" width="1072" height="518" rx="32" fill="url(#panel)"/>
  <rect x="64" y="56" width="1072" height="518" rx="32" fill="url(#cyanGlow)"/>
  <rect x="64" y="56" width="1072" height="518" rx="32" fill="url(#goldGlow)"/>
  <path d="M112 414 C260 158 476 120 704 238 C858 318 922 438 1088 258" fill="none" stroke="#10d7ff" stroke-width="2" opacity="0.42"/>
  <path d="M164 484 C316 334 500 298 694 374 C850 436 966 410 1084 326" fill="none" stroke="#d99a22" stroke-width="4" opacity="0.62"/>
  <circle cx="870" cy="198" r="126" fill="none" stroke="#10d7ff" stroke-opacity="0.18" stroke-width="2"/>
  <circle cx="978" cy="330" r="168" fill="none" stroke="#d99a22" stroke-opacity="0.2" stroke-width="2"/>
  <text x="116" y="178" fill="#10d7ff" font-family="Manrope, Inter, Arial, sans-serif" font-size="34" font-weight="800">Mercure Global</text>
  <text x="116" y="224" fill="#e9edf3" font-family="Inter, Arial, sans-serif" font-size="24" font-weight="700" letter-spacing="3">INTERNATIONAL LOGISTICS SOLUTIONS</text>
  <text x="116" y="330" fill="#ffffff" font-family="Manrope, Inter, Arial, sans-serif" font-size="68" font-weight="800">Importá con respaldo global</text>
  <text x="116" y="392" fill="#e9edf3" font-family="Inter, Arial, sans-serif" font-size="34" font-weight="600">Logística internacional para empresas</text>
  <text x="116" y="446" fill="#98a7ba" font-family="Inter, Arial, sans-serif" font-size="28" font-weight="600">Asesoramiento, trazabilidad y entrega en Argentina</text>
  <rect x="116" y="500" width="364" height="8" rx="4" fill="#d99a22"/>
  <rect x="480" y="500" width="240" height="8" rx="4" fill="#10d7ff"/>
</svg>
